<svg width="153" height="82" viewBox="0 0 153 82" fill="none" xmlns="http://www.w3.org/2000/svg">
<path d="M10.7402 19.459C12.6855 19.459 14.3203 19.6348 15.6445 19.9863C16.9688 20.3379 18.0352 20.8301 18.8438 21.4629C19.6641 22.084 20.25 22.834 20.6016 23.7129C20.9648 24.5801 21.1465 25.5352 21.1465 26.5781C21.1465 27.5625 20.9824 28.5234 20.6543 29.4609C20.3262 30.3984 19.752 31.2363 18.9316 31.9746C18.123 32.7129 17.0332 33.3047 15.6621 33.75C14.3027 34.1953 12.5859 34.418 10.5117 34.418H8.08594V43.5938H11.7773V45H1.14258V43.5938H4.6582V20.8652H1.14258V19.459H10.7402ZM8.08594 33.0117H10.248C11.5957 33.0117 12.7266 32.9121 13.6406 32.7129C14.5664 32.502 15.3047 32.1504 15.8555 31.6582C16.4062 31.166 16.7988 30.5156 17.0332 29.707C17.2793 28.8867 17.4023 27.8672 17.4023 26.6484C17.4023 25.6406 17.3086 24.7734 17.1211 24.0469C16.9453 23.3203 16.6055 22.7227 16.1016 22.2539C15.5977 21.7734 14.8945 21.4219 13.9922 21.1992C13.1016 20.9766 11.9473 20.8652 10.5293 20.8652H8.08594V33.0117ZM29.1445 43.5938H31.7812V45H23.3438V43.5938H25.9805V20.8652H23.3438V19.459H29.1445V43.5938ZM49.0254 45C48.5332 45.0938 48.0762 45.1523 47.6543 45.1758C47.2324 45.1992 46.8984 45.2109 46.6523 45.2109C46.0312 45.2109 45.5156 45.1582 45.1055 45.0527C44.707 44.959 44.3906 44.8184 44.1562 44.6309C43.9219 44.4434 43.752 44.2148 43.6465 43.9453C43.541 43.6758 43.4766 43.377 43.4531 43.0488H43.3652C43.0371 43.5059 42.6855 43.8926 42.3105 44.209C41.9355 44.5254 41.543 44.7773 41.1328 44.9648C40.7227 45.1523 40.3008 45.2871 39.8672 45.3691C39.4453 45.4512 39.0176 45.4922 38.584 45.4922C37.8691 45.4922 37.2305 45.3926 36.668 45.1934C36.1055 45.0059 35.6309 44.7363 35.2441 44.3848C34.8574 44.0332 34.5645 43.6172 34.3652 43.1367C34.166 42.6445 34.0664 42.1055 34.0664 41.5195C34.0664 39.8906 34.8633 38.6543 36.457 37.8105C38.0625 36.9551 40.3711 36.498 43.3828 36.4395C43.3945 35.9121 43.4004 35.4375 43.4004 35.0156C43.4121 34.5938 43.418 34.1777 43.418 33.7676C43.418 32.7012 43.1953 31.957 42.75 31.5352C42.3164 31.1016 41.625 30.8848 40.6758 30.8848C40.043 30.8848 39.4746 30.9551 38.9707 31.0957C38.4785 31.2363 38.0742 31.4238 37.7578 31.6582C38.0391 31.9277 38.2441 32.2148 38.373 32.5195C38.5137 32.8125 38.584 33.1055 38.584 33.3984C38.584 33.8906 38.4258 34.3008 38.1094 34.6289C37.793 34.957 37.3594 35.1211 36.8086 35.1211C36.5742 35.1211 36.3457 35.0859 36.123 35.0156C35.9004 34.9453 35.707 34.834 35.543 34.6816C35.3789 34.5293 35.2441 34.3418 35.1387 34.1191C35.0449 33.8848 34.998 33.6152 34.998 33.3105C34.998 32.8301 35.127 32.3672 35.3848 31.9219C35.6543 31.4648 36.0469 31.0605 36.5625 30.709C37.0898 30.3574 37.7402 30.0762 38.5137 29.8652C39.2988 29.6543 40.2129 29.5488 41.2559 29.5488C42.0996 29.5488 42.8438 29.6309 43.4883 29.7949C44.1445 29.959 44.6953 30.2344 45.1406 30.6211C45.5977 30.9961 45.9375 31.5 46.1602 32.1328C46.3945 32.7656 46.5117 33.5508 46.5117 34.4883C46.5117 34.7227 46.5059 35.1094 46.4941 35.6484C46.4941 36.1758 46.4883 36.7617 46.4766 37.4062C46.4648 38.0508 46.4531 38.707 46.4414 39.375C46.4414 40.0312 46.4414 40.6113 46.4414 41.1152C46.4414 41.6309 46.4531 42.0645 46.4766 42.416C46.5 42.7559 46.5586 43.0312 46.6523 43.2422C46.7461 43.4414 46.8867 43.5879 47.0742 43.6816C47.2617 43.7637 47.5254 43.8047 47.8652 43.8047C48.1582 43.8047 48.5449 43.7695 49.0254 43.6992V45ZM43.3828 37.7578C42.1055 37.793 41.0742 37.8926 40.2891 38.0566C39.5039 38.209 38.8945 38.4316 38.4609 38.7246C38.0273 39.0059 37.7344 39.3516 37.582 39.7617C37.4297 40.1719 37.3535 40.6406 37.3535 41.168C37.3535 42.082 37.541 42.7676 37.916 43.2246C38.3027 43.6699 38.8301 43.8926 39.498 43.8926C39.8613 43.8926 40.2656 43.8164 40.7109 43.6641C41.168 43.5117 41.5957 43.2656 41.9941 42.9258C42.3926 42.5742 42.7207 42.1172 42.9785 41.5547C43.248 40.9922 43.3828 40.2949 43.3828 39.4629V37.7578ZM63.7383 31.4297H61.2773V30.0234H67.8516V31.4297H65.25L58.4648 46.793C57.7617 48.3984 57.1406 49.7227 56.6016 50.7656C56.0742 51.8203 55.582 52.6523 55.125 53.2617C54.668 53.8828 54.2227 54.3164 53.7891 54.5625C53.3555 54.8086 52.8867 54.9316 52.3828 54.9316C51.9844 54.9316 51.627 54.8672 51.3105 54.7383C51.0059 54.6211 50.7422 54.457 50.5195 54.2461C50.3086 54.0469 50.1445 53.8125 50.0273 53.543C49.9219 53.2734 49.8691 52.998 49.8691 52.7168C49.8691 52.4707 49.9102 52.2305 49.9922 51.9961C50.0742 51.7617 50.1973 51.5508 50.3613 51.3633C50.5254 51.1875 50.7188 51.041 50.9414 50.9238C51.1758 50.8184 51.4453 50.7656 51.75 50.7656C52.0312 50.7656 52.2832 50.8125 52.5059 50.9062C52.7285 51.0117 52.9102 51.1465 53.0508 51.3105C53.2031 51.4863 53.3145 51.6797 53.3848 51.8906C53.4668 52.1133 53.5078 52.3418 53.5078 52.5762C53.5078 52.7285 53.4961 52.8516 53.4727 52.9453L53.543 52.9629C54 52.5527 54.5566 51.6738 55.2129 50.3262C55.8809 48.9902 56.6895 47.25 57.6387 45.1055L51.5039 31.4297H48.8496V30.0234H57.4277V31.4297H54.9668L59.3262 41.1855H59.3965L63.7383 31.4297Z" fill="#151515"/>
<path d="M108.422 31.4297H105.873V30.0234H111.586V43.5938H114.223V45H108.422V42.75H108.352C107.836 43.6875 107.197 44.3789 106.436 44.8242C105.674 45.2695 104.689 45.4922 103.482 45.4922C101.807 45.4922 100.559 45.0879 99.7383 44.2793C98.9297 43.459 98.5254 42.2695 98.5254 40.7109V31.4297H95.9766V30.0234H101.689V41.2383C101.689 42.1875 101.906 42.873 102.34 43.2949C102.785 43.7051 103.418 43.9102 104.238 43.9102C104.812 43.9102 105.352 43.8047 105.855 43.5938C106.371 43.3711 106.816 43.0137 107.191 42.5215C107.578 42.0293 107.877 41.3848 108.088 40.5879C108.311 39.791 108.422 38.8125 108.422 37.6523V31.4297ZM120.814 45H118.354V20.8652H115.717V19.459H121.518V31.9922H121.588C122.104 31.1602 122.771 30.5449 123.592 30.1465C124.424 29.748 125.326 29.5488 126.299 29.5488C127.318 29.5488 128.25 29.7363 129.094 30.1113C129.949 30.4863 130.688 31.0195 131.309 31.7109C131.93 32.3906 132.41 33.2168 132.75 34.1895C133.102 35.1621 133.277 36.2402 133.277 37.4238C133.277 38.6777 133.084 39.8027 132.697 40.7988C132.322 41.7949 131.812 42.6387 131.168 43.3301C130.523 44.0215 129.773 44.5547 128.918 44.9297C128.062 45.3047 127.16 45.4922 126.211 45.4922C125.262 45.4922 124.383 45.2871 123.574 44.877C122.777 44.4551 122.115 43.7871 121.588 42.873H121.482L120.814 45ZM129.797 37.4766C129.797 36.1406 129.703 35.0508 129.516 34.207C129.328 33.3516 129.059 32.6836 128.707 32.2031C128.367 31.7109 127.957 31.377 127.477 31.2012C126.996 31.0254 126.463 30.9375 125.877 30.9375C125.08 30.9375 124.406 31.0898 123.855 31.3945C123.305 31.6992 122.854 32.1328 122.502 32.6953C122.162 33.2578 121.91 33.9375 121.746 34.7344C121.594 35.5195 121.518 36.4043 121.518 37.3887C121.518 38.3965 121.588 39.2637 121.729 39.9902C121.881 40.7168 122.074 41.332 122.309 41.8359C122.543 42.3281 122.812 42.7266 123.117 43.0312C123.434 43.3242 123.75 43.5527 124.066 43.7168C124.395 43.8691 124.717 43.9746 125.033 44.0332C125.361 44.0801 125.654 44.1035 125.912 44.1035C126.475 44.1035 126.99 44.0156 127.459 43.8398C127.939 43.6641 128.35 43.3359 128.689 42.8555C129.041 42.3633 129.311 41.6895 129.498 40.834C129.697 39.9668 129.797 38.8477 129.797 37.4766ZM150.17 40.2363C149.795 41.9355 149.068 43.2363 147.99 44.1387C146.912 45.041 145.512 45.4922 143.789 45.4922C142.605 45.4922 141.551 45.2871 140.625 44.877C139.699 44.4551 138.914 43.8867 138.27 43.1719C137.625 42.457 137.133 41.625 136.793 40.6758C136.453 39.7148 136.283 38.6953 136.283 37.6172C136.283 36.5156 136.459 35.4727 136.811 34.4883C137.162 33.5039 137.66 32.6484 138.305 31.9219C138.961 31.1953 139.74 30.6211 140.643 30.1992C141.557 29.7656 142.576 29.5488 143.701 29.5488C144.732 29.5488 145.658 29.7305 146.479 30.0938C147.299 30.457 147.996 30.9668 148.57 31.623C149.145 32.2676 149.584 33.041 149.889 33.9434C150.205 34.8457 150.375 35.8359 150.398 36.9141H139.799C139.787 37.1133 139.781 37.248 139.781 37.3184C139.781 37.377 139.781 37.4121 139.781 37.4238C139.781 38.8066 139.881 39.9316 140.08 40.7988C140.291 41.666 140.578 42.3457 140.941 42.8379C141.316 43.3184 141.756 43.6465 142.26 43.8223C142.775 43.998 143.344 44.0859 143.965 44.0859C144.539 44.0859 145.078 44.0098 145.582 43.8574C146.098 43.7051 146.561 43.4648 146.971 43.1367C147.381 42.7969 147.738 42.3633 148.043 41.8359C148.359 41.2969 148.611 40.6523 148.799 39.9023C149.033 39.9258 149.268 39.9668 149.502 40.0254C149.736 40.084 149.959 40.1543 150.17 40.2363ZM146.848 35.543C146.812 34.5703 146.707 33.7852 146.531 33.1875C146.367 32.5781 146.145 32.1035 145.863 31.7637C145.582 31.4238 145.248 31.1953 144.861 31.0781C144.486 30.9492 144.07 30.8848 143.613 30.8848C143.133 30.8848 142.682 30.9551 142.26 31.0957C141.85 31.2363 141.48 31.4824 141.152 31.834C140.824 32.1855 140.549 32.6602 140.326 33.2578C140.115 33.8555 139.969 34.6172 139.887 35.543H146.848Z" fill="#FF0000"/>
<path d="M66 44.7426L81.2646 15.1542L95.9159 45.0509L66 44.7426Z" stroke="#151515" stroke-width="2" stroke-linecap="round" stroke-linejoin="round"/>
<path d="M77.3564 31L87.6716 36.7337L77.0001 41.7731L77.3564 31Z" fill="#FF0000" stroke="#FF0000" stroke-width="2" stroke-linecap="round" stroke-linejoin="round"/>
</svg>
